<?xml version="1.0" encoding="UTF-8"?>
<svg width="76px" height="67px" viewBox="0 0 76 67" version="1.1" xmlns="http://www.w3.org/2000/svg" xmlns:xlink="http://www.w3.org/1999/xlink">
    <!-- Generator: Sketch 54.1 (76490) - https://sketchapp.com -->
    <title>Icon / Phones</title>
    <desc>Created with Sketch.</desc>
    <defs>
        <polygon id="path-1" points="5.37548052 0.383355705 0.348649351 0.383355705 0.348649351 37.3119463 11.4422208 38.3524832 11.4422208 15.4671141 14.3888312 14.0802685 23.0555455 14.0802685 23.0555455 0.383355705"></polygon>
        <polygon id="path-3" points="0.0744805195 0.0527516779 0.0744805195 36.9809396 11.1684545 38.0210738 11.1684545 15.1357047 14.1146623 13.7488591 22.7817792 13.7488591 22.7817792 0.0527516779"></polygon>
        <polygon id="path-5" points="0.0434805195 0.0527516779 0.0434805195 13.7488591 8.71019481 13.7488591 11.6572078 15.1357047 11.6572078 38.0210738 22.7503766 36.9809396 22.7503766 0.0527516779"></polygon>
        <polygon id="path-7" points="17.882974 0.383355705 0.202506494 0.383355705 0.202506494 14.0802685 8.86922078 14.0802685 11.8162338 15.4671141 11.8162338 38.3524832 22.9094026 37.3119463 22.9094026 0.383355705"></polygon>
        <polygon id="path-9" points="0.380051948 0.202550336 20.4757013 0.202550336 20.4757013 13.1194631 0.380051948 13.1194631"></polygon>
    </defs>
    <g id="Icon-/-Phones" stroke="none" stroke-width="1" fill="none" fill-rule="evenodd">
        <g id="Group-18" transform="translate(7.000000, 3.000000)">
            <path d="M22.5382078,55.6228188 L39.3808701,55.6228188 L39.3808701,29.0548993 L22.5382078,29.0548993 L22.5382078,55.6228188 Z M30.9601429,58.7786577 C30.3127662,58.7786577 29.7926104,58.2571812 29.7926104,57.6060403 C29.7926104,56.9645638 30.3127662,56.438255 30.9601429,56.438255 C31.6063117,56.438255 32.1276753,56.9645638 32.1276753,57.6060403 C32.1276753,58.2571812 31.6063117,58.7786577 30.9601429,58.7786577 L30.9601429,58.7786577 Z M28.4942338,27.0318121 L33.4260519,27.0318121 C33.5854805,27.0318121 33.7102857,27.1566443 33.7102857,27.3161074 C33.7102857,27.4707383 33.5854805,27.5967785 33.4260519,27.5967785 L28.4942338,27.5967785 C28.3348052,27.5967785 28.2087922,27.4707383 28.2087922,27.3161074 C28.2087922,27.1566443 28.3348052,27.0318121 28.4942338,27.0318121 L28.4942338,27.0318121 Z M38.6718961,25.3477852 L23.2483896,25.3477852 C21.9649091,25.3477852 20.9125195,26.3943624 20.9125195,27.6833557 L20.9125195,57.6060403 C20.9125195,58.8946309 21.9649091,59.947651 23.2483896,59.947651 L38.6718961,59.947651 C39.9553766,59.947651 41.0081688,58.8946309 41.0081688,57.6060403 L41.0081688,27.6833557 C41.0081688,26.3943624 39.9553766,25.3477852 38.6718961,25.3477852 L38.6718961,25.3477852 Z" id="Fill-1" fill="#0A1A92"></path>
            <g id="Group-5" transform="translate(10.064935, 12.028188)">
                <mask id="mask-2" fill="white">
                    <use xlink:href="#path-1"></use>
                </mask>
                <g id="Clip-4"></g>
                <path d="M1.89985714,32.1519463 L18.7425195,32.1519463 L18.7425195,5.58402685 L1.89985714,5.58402685 L1.89985714,32.1519463 Z M10.3217922,35.3077852 C9.67441558,35.3077852 9.15425974,34.7863087 9.15425974,34.1351678 C9.15425974,33.4936913 9.67441558,32.9673826 10.3217922,32.9673826 C10.967961,32.9673826 11.4893247,33.4936913 11.4893247,34.1351678 C11.4893247,34.7863087 10.967961,35.3077852 10.3217922,35.3077852 L10.3217922,35.3077852 Z M7.85588312,3.56134228 L12.7877013,3.56134228 C12.9471299,3.56134228 13.0719351,3.68577181 13.0719351,3.8452349 C13.0719351,3.99986577 12.9471299,4.12590604 12.7877013,4.12590604 L7.85588312,4.12590604 C7.69645455,4.12590604 7.57044156,3.99986577 7.57044156,3.8452349 C7.57044156,3.68577181 7.69645455,3.56134228 7.85588312,3.56134228 L7.85588312,3.56134228 Z M18.0335455,1.87691275 L2.61003896,1.87691275 C1.32655844,1.87691275 0.273766234,2.92348993 0.273766234,4.21248322 L0.273766234,34.1351678 C0.273766234,35.4241611 1.32655844,36.4767785 2.61003896,36.4767785 L18.0335455,36.4767785 C19.317026,36.4767785 20.3698182,35.4241611 20.3698182,34.1351678 L20.3698182,4.21248322 C20.3698182,2.92348993 19.317026,1.87691275 18.0335455,1.87691275 L18.0335455,1.87691275 Z" id="Fill-3" fill="#0A1A92" mask="url(#mask-2)"></path>
            </g>
            <g id="Group-8" transform="translate(0.000000, 0.350336)">
                <mask id="mask-4" fill="white">
                    <use xlink:href="#path-3"></use>
                </mask>
                <g id="Clip-7"></g>
                <path d="M1.62609091,31.8209396 L18.4687532,31.8209396 L18.4687532,5.25302013 L1.62609091,5.25302013 L1.62609091,31.8209396 Z M10.0476234,34.9767785 C9.40064935,34.9767785 8.88049351,34.455302 8.88049351,33.8041611 C8.88049351,33.1626846 9.40064935,32.6359732 10.0476234,32.6359732 C10.6937922,32.6359732 11.2151558,33.1626846 11.2151558,33.8041611 C11.2151558,34.455302 10.6937922,34.9767785 10.0476234,34.9767785 L10.0476234,34.9767785 Z M7.58171429,3.22993289 L12.5139351,3.22993289 C12.672961,3.22993289 12.7977662,3.3547651 12.7977662,3.51422819 C12.7977662,3.66845638 12.672961,3.79489933 12.5139351,3.79489933 L7.58171429,3.79489933 C7.42268831,3.79489933 7.29667532,3.66845638 7.29667532,3.51422819 C7.29667532,3.3547651 7.42268831,3.22993289 7.58171429,3.22993289 L7.58171429,3.22993289 Z M17.7593766,1.54550336 L2.33627273,1.54550336 C1.05238961,1.54550336 0,2.59248322 0,3.88147651 L0,33.8041611 C0,35.0927517 1.05238961,36.1457718 2.33627273,36.1457718 L17.7593766,36.1457718 C19.0432597,36.1457718 20.0956494,35.0927517 20.0956494,33.8041611 L20.0956494,3.88147651 C20.0956494,2.59248322 19.0432597,1.54550336 17.7593766,1.54550336 L17.7593766,1.54550336 Z" id="Fill-6" fill="#0A1A92" mask="url(#mask-4)"></path>
            </g>
            <g id="Group-11" transform="translate(39.051948, 0.350336)">
                <mask id="mask-6" fill="white">
                    <use xlink:href="#path-5"></use>
                </mask>
                <g id="Clip-10"></g>
                <path d="M4.35690909,31.8205369 L21.1995714,31.8205369 L21.1995714,5.25261745 L4.35690909,5.25261745 L4.35690909,31.8205369 Z M12.7776364,34.9767785 C12.1314675,34.9767785 11.6101039,34.455302 11.6101039,33.8041611 C11.6101039,33.1626846 12.1314675,32.6359732 12.7776364,32.6359732 C13.425013,32.6359732 13.9451688,33.1626846 13.9451688,33.8041611 C13.9451688,34.455302 13.425013,34.9767785 12.7776364,34.9767785 L12.7776364,34.9767785 Z M15.2435455,3.22993289 C15.402974,3.22993289 15.528987,3.3547651 15.528987,3.51422819 C15.528987,3.66845638 15.402974,3.79489933 15.2435455,3.79489933 L10.3117273,3.79489933 C10.1522987,3.79489933 10.0274935,3.66845638 10.0274935,3.51422819 C10.0274935,3.3547651 10.1522987,3.22993289 10.3117273,3.22993289 L15.2435455,3.22993289 Z M5.06588312,1.54550336 C3.7824026,1.54550336 2.72961039,2.59248322 2.72961039,3.88147651 L2.72961039,33.8041611 C2.72961039,35.0927517 3.7824026,36.1457718 5.06588312,36.1457718 L20.488987,36.1457718 C21.7728701,36.1457718 22.8252597,35.0927517 22.8252597,33.8041611 L22.8252597,3.88147651 C22.8252597,2.59248322 21.7728701,1.54550336 20.488987,1.54550336 L5.06588312,1.54550336 Z" id="Fill-9" fill="#0A1A92" mask="url(#mask-6)"></path>
            </g>
            <g id="Group-14" transform="translate(28.584416, 12.028188)">
                <mask id="mask-8" fill="white">
                    <use xlink:href="#path-7"></use>
                </mask>
                <g id="Clip-13"></g>
                <path d="M4.51593506,32.1519463 L21.3585974,32.1519463 L21.3585974,5.58402685 L4.51593506,5.58402685 L4.51593506,32.1519463 Z M12.9366623,35.3077852 C12.2904935,35.3077852 11.7691299,34.7863087 11.7691299,34.1351678 C11.7691299,33.4936913 12.2904935,32.9673826 12.9366623,32.9673826 C13.584039,32.9673826 14.1041948,33.4936913 14.1041948,34.1351678 C14.1041948,34.7863087 13.584039,35.3077852 12.9366623,35.3077852 L12.9366623,35.3077852 Z M15.4025714,3.56134228 C15.562,3.56134228 15.688013,3.68577181 15.688013,3.8452349 C15.688013,3.99986577 15.562,4.12590604 15.4025714,4.12590604 L10.4707532,4.12590604 C10.3113247,4.12590604 10.1865195,3.99986577 10.1865195,3.8452349 C10.1865195,3.68577181 10.3113247,3.56134228 10.4707532,3.56134228 L15.4025714,3.56134228 Z M5.22490909,1.87691275 C3.94142857,1.87691275 2.88863636,2.92348993 2.88863636,4.21248322 L2.88863636,34.1351678 C2.88863636,35.4241611 3.94142857,36.4767785 5.22490909,36.4767785 L20.6484156,36.4767785 C21.9318961,36.4767785 22.9842857,35.4241611 22.9842857,34.1351678 L22.9842857,4.21248322 C22.9842857,2.92348993 21.9318961,1.87691275 20.6484156,1.87691275 L5.22490909,1.87691275 Z" id="Fill-12" fill="#0A1A92" mask="url(#mask-8)"></path>
            </g>
            <g id="Group-17" transform="translate(20.532468, 1.961074)">
                <mask id="mask-10" fill="white">
                    <use xlink:href="#path-9"></use>
                </mask>
                <g id="Clip-16"></g>
                <path d="M2.00574026,30.4775839 L18.8484026,30.4775839 L18.8484026,3.90966443 L2.00574026,3.90966443 L2.00574026,30.4775839 Z M10.4276753,33.6334228 C9.7802987,33.6334228 9.26014286,33.1119463 9.26014286,32.4608054 C9.26014286,31.8193289 9.7802987,31.2930201 10.4276753,31.2930201 C11.0738442,31.2930201 11.5952078,31.8193289 11.5952078,32.4608054 C11.5952078,33.1119463 11.0738442,33.6334228 10.4276753,33.6334228 L10.4276753,33.6334228 Z M7.96176623,1.88697987 L12.8935844,1.88697987 C13.053013,1.88697987 13.1778182,2.01181208 13.1778182,2.17127517 C13.1778182,2.32550336 13.053013,2.45154362 12.8935844,2.45154362 L7.96176623,2.45154362 C7.80233766,2.45154362 7.67632468,2.32550336 7.67632468,2.17127517 C7.67632468,2.01181208 7.80233766,1.88697987 7.96176623,1.88697987 L7.96176623,1.88697987 Z M18.1394286,0.202550336 L2.71592208,0.202550336 C1.43244156,0.202550336 0.380051948,1.24912752 0.380051948,2.53812081 L0.380051948,32.4608054 C0.380051948,33.7497987 1.43244156,34.8024161 2.71592208,34.8024161 L18.1394286,34.8024161 C19.4229091,34.8024161 20.4757013,33.7497987 20.4757013,32.4608054 L20.4757013,2.53812081 C20.4757013,1.24912752 19.4229091,0.202550336 18.1394286,0.202550336 L18.1394286,0.202550336 Z" id="Fill-15" fill="#0A1A92" mask="url(#mask-10)"></path>
            </g>
        </g>
    </g>
</svg>